<svg width="24" height="24" fill="none" xmlns="http://www.w3.org/2000/svg"><g filter="url(#a)"><path d="M16.384 23.115c6.15-2.433 9.164-9.391 6.73-15.542-2.432-6.15-9.39-9.163-15.54-6.73-6.15 2.433-9.164 9.39-6.731 15.541 2.433 6.15 9.39 9.164 15.541 6.73z" fill="url(#b)"/><path d="M16.384 23.115c6.15-2.433 9.164-9.391 6.73-15.542-2.432-6.15-9.39-9.163-15.54-6.73-6.15 2.433-9.164 9.39-6.731 15.541 2.433 6.15 9.39 9.164 15.541 6.73z" fill="url(#c)"/><path d="M8.416 3.03A9.58 9.58 0 0 0 3.03 15.463 9.58 9.58 0 1 0 8.415 3.03z" fill="url(#d)"/><path d="M8.416 3.03A9.58 9.58 0 0 0 3.03 15.463 9.58 9.58 0 1 0 8.415 3.03z" fill="url(#e)"/></g><g filter="url(#f)"><path d="M10.548 6.5a.8.8 0 0 0-.766.571l-1.507 5.056a.6.6 0 0 0 .575.77h1.267l-1.024 3.51c-.307 1.053 1.059 1.76 1.742.903l5.283-6.638a.6.6 0 0 0-.469-.973h-1.623l.794-2.118a.8.8 0 0 0-.748-1.081h-3.524z" fill="url(#g)"/></g><defs><linearGradient id="b" x1="15.427" y1="-12.99" x2="13.183" y2="21.23" gradientUnits="userSpaceOnUse"><stop stop-color="#FFE279"/><stop offset=".339" stop-color="#FFEBA5"/><stop offset="1" stop-color="#FCBA31"/></linearGradient><linearGradient id="c" x1="15.427" y1="-12.99" x2="13.183" y2="21.23" gradientUnits="userSpaceOnUse"><stop stop-color="#DDD"/><stop offset=".339" stop-color="#CCC"/><stop offset="1" stop-color="#919191"/></linearGradient><linearGradient id="d" x1="7.898" y1="24.871" x2="10.48" y2="-9.693" gradientUnits="userSpaceOnUse"><stop stop-color="#FFE973"/><stop offset=".28" stop-color="#FFD273"/><stop offset=".807" stop-color="#FFB10E"/><stop offset="1" stop-color="#F7AA09"/></linearGradient><linearGradient id="e" x1="7.898" y1="24.871" x2="10.48" y2="-9.693" gradientUnits="userSpaceOnUse"><stop stop-color="#CCC"/><stop offset=".28" stop-color="#DDD"/><stop offset=".807" stop-color="#767676"/><stop offset="1" stop-color="#767676"/></linearGradient><linearGradient id="g" x1="8.25" y1="6.5" x2="13.755" y2="17.883" gradientUnits="userSpaceOnUse"><stop stop-color="#767676"/><stop offset="1" stop-color="#919191"/></linearGradient><filter id="a" x="-.847" y="-.847" width="25.652" height="25.652" filterUnits="userSpaceOnUse" color-interpolation-filters="sRGB"><feFlood flood-opacity="0" result="BackgroundImageFix"/><feBlend in="SourceGraphic" in2="BackgroundImageFix" result="shape"/><feColorMatrix in="SourceAlpha" values="0 0 0 0 0 0 0 0 0 0 0 0 0 0 0 0 0 0 127 0" result="hardAlpha"/><feOffset dx="-.847" dy=".847"/><feGaussianBlur stdDeviation=".636"/><feComposite in2="hardAlpha" operator="arithmetic" k2="-1" k3="1"/><feColorMatrix values="0 0 0 0 1 0 0 0 0 1 0 0 0 0 1 0 0 0 0.3 0"/><feBlend in2="shape" result="effect1_innerShadow_1137_180278"/><feColorMatrix in="SourceAlpha" values="0 0 0 0 0 0 0 0 0 0 0 0 0 0 0 0 0 0 127 0" result="hardAlpha"/><feOffset dx=".847" dy="-.847"/><feGaussianBlur stdDeviation="1.059"/><feComposite in2="hardAlpha" operator="arithmetic" k2="-1" k3="1"/><feColorMatrix values="0 0 0 0 0 0 0 0 0 0 0 0 0 0 0 0 0 0 0.2 0"/><feBlend in2="effect1_innerShadow_1137_180278" result="effect2_innerShadow_1137_180278"/></filter><filter id="f" x="8.25" y="6.5" width="9.234" height="12.427" filterUnits="userSpaceOnUse" color-interpolation-filters="sRGB"><feFlood flood-opacity="0" result="BackgroundImageFix"/><feBlend in="SourceGraphic" in2="BackgroundImageFix" result="shape"/><feColorMatrix in="SourceAlpha" values="0 0 0 0 0 0 0 0 0 0 0 0 0 0 0 0 0 0 127 0" result="hardAlpha"/><feOffset dx="1.234" dy="1.234"/><feGaussianBlur stdDeviation="1.234"/><feComposite in2="hardAlpha" operator="arithmetic" k2="-1" k3="1"/><feColorMatrix values="0 0 0 0 0.4 0 0 0 0 0.4 0 0 0 0 0.4 0 0 0 0.48 0"/><feBlend in2="shape" result="effect1_innerShadow_1137_180278"/></filter></defs></svg>