<svg width="32" height="32" viewBox="0 0 32 32" fill="none" xmlns="http://www.w3.org/2000/svg">
    <path d="M7.98282 6.26829L8.08184 6.35719L16 14.2761L23.9182 6.35719C24.3944 5.88094 25.1666 5.88094 25.6428 6.35719C26.0873 6.80169 26.1169 7.50395 25.7317 7.98282L25.6428 8.08184L17.7239 16L25.6428 23.9182C26.1191 24.3944 26.1191 25.1666 25.6428 25.6428C25.1983 26.0873 24.496 26.1169 24.0172 25.7317L23.9182 25.6428L16 17.7239L8.08184 25.6428C7.60559 26.1191 6.83344 26.1191 6.35719 25.6428C5.91269 25.1983 5.88305 24.496 6.26829 24.0172L6.35719 23.9182L14.2761 16L6.35719 8.08184C5.88094 7.60559 5.88094 6.83344 6.35719 6.35719C6.76994 5.94444 7.40494 5.8894 7.87696 6.19209L7.98282 6.26829Z" fill="white" />
</svg>