<svg width="37" height="36" viewBox="0 0 37 36" fill="none" xmlns="http://www.w3.org/2000/svg">
    <path d="M18.5 2C27.3368 2 34.5 9.1648 34.5 18C34.5 26.8352 27.3368 34 18.5 34C9.6632 34 2.5 26.8352 2.5 18C2.5 9.1648 9.6632 2 18.5 2ZM18.5029 22.806C17.6204 22.806 16.905 23.5213 16.905 24.4038C16.905 25.2863 17.6204 26.0017 18.5029 26.0017C19.3854 26.0017 20.1007 25.2863 20.1007 24.4038C20.1007 23.5213 19.3854 22.806 18.5029 22.806ZM18.4994 10C17.6789 10.0003 17.0028 10.6182 16.9107 11.414L16.9 11.6006L16.9029 19.602L16.9137 19.7886C17.0064 20.5843 17.6829 21.2017 18.5035 21.2014C19.324 21.2011 20 20.5832 20.0922 19.7874L20.1029 19.6008L20.1 11.5994L20.0892 11.4128C19.9965 10.6171 19.32 9.9997 18.4994 10Z" fill="#FF6666" />
</svg>