<svg width="116" height="20" viewBox="0 0 116 20" fill="none" xmlns="http://www.w3.org/2000/svg">
    <path d="M35.1088 4.54994V15.3565H33.2326V6.88635H33.2026L29.8481 15.3565H28.6048L25.1677 6.88635H25.1452V15.3565H23.4117V4.54994H26.1008L29.2052 12.5598H29.2502L32.5272 4.54994H35.1088V4.54994ZM36.6772 5.37293C36.6772 5.07025 36.7873 4.8201 37.0049 4.61498C37.2225 4.41235 37.4827 4.30979 37.7854 4.30979C38.1081 4.30979 38.3732 4.41486 38.5834 4.62248C38.7935 4.83011 38.9011 5.08026 38.9011 5.37293C38.9011 5.66811 38.7935 5.91827 38.5759 6.11839C38.3607 6.31851 38.0956 6.42107 37.7854 6.42107C37.4752 6.42107 37.2125 6.31851 36.9974 6.11588C36.7848 5.91076 36.6772 5.66311 36.6772 5.37293ZM38.6884 7.60929V15.3565H36.8648V7.60929H38.6884ZM44.2218 14.0307C44.4919 14.0307 44.7921 13.9681 45.1173 13.8431C45.445 13.718 45.7452 13.5529 46.0229 13.3453V15.0413C45.7327 15.2064 45.4 15.334 45.0323 15.419C44.662 15.5041 44.2568 15.5466 43.814 15.5466C42.6733 15.5466 41.7478 15.1864 41.0323 14.4659C40.3194 13.7455 39.9617 12.8249 39.9617 11.7043C39.9617 10.4585 40.3269 9.43289 41.0549 8.6249C41.7828 7.81942 42.8159 7.41667 44.1517 7.41667C44.4944 7.41667 44.8396 7.4617 45.1874 7.54925C45.5376 7.6368 45.8127 7.73937 46.0204 7.85444V9.60299C45.7377 9.39787 45.4525 9.23777 45.1573 9.12521C44.8647 9.01264 44.562 8.9551 44.2568 8.9551C43.5389 8.9551 42.9585 9.18774 42.5157 9.65553C42.073 10.1233 41.8528 10.7537 41.8528 11.5467C41.8528 12.3296 42.0655 12.94 42.4907 13.3778C42.916 13.813 43.4913 14.0307 44.2218 14.0307ZM51.2135 7.48171C51.3586 7.48171 51.4887 7.49172 51.6062 7.51173C51.7238 7.53174 51.8189 7.55676 51.9014 7.58677V9.43289C51.8064 9.36285 51.6663 9.29531 51.4837 9.23277C51.3011 9.17023 51.0784 9.13771 50.8158 9.13771C50.368 9.13771 49.9903 9.32533 49.6826 9.70305C49.3749 10.0808 49.2198 10.6611 49.2198 11.4441V15.3565H47.3962V7.60929H49.2198V8.83003H49.2498C49.4149 8.40727 49.6676 8.07707 50.0028 7.83943C50.338 7.60178 50.7407 7.48171 51.2135 7.48171ZM51.999 11.5967C51.999 10.3159 52.3617 9.30031 53.0846 8.55236C53.8076 7.80441 54.8132 7.42918 56.099 7.42918C57.3097 7.42918 58.2553 7.7894 58.9357 8.50983C59.6161 9.23027 59.9563 10.2034 59.9563 11.4291C59.9563 12.6849 59.5936 13.6855 58.8706 14.4284C58.1477 15.1714 57.1621 15.5441 55.9163 15.5441C54.7156 15.5441 53.7625 15.1914 53.0571 14.4859C52.3517 13.7805 51.999 12.8174 51.999 11.5967ZM53.8976 11.5367C53.8976 12.3447 54.0802 12.9625 54.448 13.3903C54.8157 13.818 55.3385 14.0307 56.0239 14.0307C56.6868 14.0307 57.1921 13.818 57.5398 13.3903C57.8875 12.9625 58.0601 12.3296 58.0601 11.4916C58.0601 10.6586 57.88 10.0283 57.5223 9.60299C57.1621 9.17774 56.6593 8.96511 56.0114 8.96511C55.3435 8.96511 54.8257 9.18774 54.4555 9.63301C54.0827 10.0783 53.8976 10.7137 53.8976 11.5367ZM62.6704 9.64552C62.6704 9.90568 62.753 10.1108 62.9181 10.2609C63.0832 10.4085 63.4509 10.5961 64.0188 10.8212C64.7467 11.1139 65.2595 11.4416 65.5522 11.8043C65.8474 12.1695 65.9924 12.6098 65.9924 13.1276C65.9924 13.8556 65.7123 14.4409 65.1519 14.8837C64.5916 15.3265 63.8336 15.5466 62.8806 15.5466C62.5579 15.5466 62.2026 15.5066 61.8149 15.429C61.4247 15.3515 61.0945 15.2514 60.8243 15.1313V13.3378C61.157 13.5679 61.5122 13.753 61.895 13.8881C62.2777 14.0232 62.6229 14.0907 62.9356 14.0907C63.3483 14.0907 63.651 14.0332 63.8486 13.9181C64.0438 13.803 64.1413 13.6079 64.1413 13.3378C64.1413 13.0876 64.0388 12.875 63.8361 12.6999C63.6335 12.5273 63.2458 12.3271 62.6804 12.0995C62.0075 11.8193 61.5297 11.5016 61.2496 11.1489C60.9694 10.7962 60.8268 10.3509 60.8268 9.80812C60.8268 9.1102 61.1045 8.53485 61.6598 8.08708C62.2152 7.6368 62.9356 7.41167 63.8186 7.41167C64.0888 7.41167 64.394 7.44169 64.7317 7.50172C65.0694 7.56176 65.3496 7.63931 65.5747 7.73436V9.46791C65.3345 9.30782 65.0519 9.17023 64.7317 9.05266C64.409 8.93759 64.0913 8.88006 63.7736 8.88006C63.4259 8.88006 63.1557 8.9476 62.9631 9.08268C62.7655 9.22276 62.6704 9.40788 62.6704 9.64552ZM66.7754 11.5967C66.7754 10.3159 67.1381 9.30031 67.8611 8.55236C68.584 7.80441 69.5896 7.42918 70.8754 7.42918C72.0861 7.42918 73.0317 7.7894 73.7121 8.50983C74.3925 9.23027 74.7327 10.2034 74.7327 11.4291C74.7327 12.6849 74.37 13.6855 73.6471 14.4284C72.9241 15.1714 71.9385 15.5441 70.6928 15.5441C69.4921 15.5441 68.539 15.1914 67.8336 14.4859C67.1281 13.7805 66.7754 12.8174 66.7754 11.5967ZM68.6766 11.5367C68.6766 12.3447 68.8592 12.9625 69.2269 13.3903C69.5946 13.818 70.1174 14.0307 70.8029 14.0307C71.4658 14.0307 71.9711 13.818 72.3188 13.3903C72.6665 12.9625 72.8391 12.3296 72.8391 11.4916C72.8391 10.6586 72.659 10.0283 72.3013 9.60299C71.941 9.17774 71.4382 8.96511 70.7903 8.96511C70.1224 8.96511 69.6046 9.18774 69.2344 9.63301C68.8592 10.0783 68.6766 10.7137 68.6766 11.5367ZM80.7839 9.10269H78.0672V15.3565H76.2211V9.10269H74.9253V7.61179H76.2211V6.53364C76.2211 5.72065 76.4863 5.05274 77.0166 4.53243C77.5469 4.01211 78.2248 3.75195 79.0553 3.75195C79.2755 3.75195 79.4731 3.76446 79.6432 3.78697C79.8133 3.80949 79.9659 3.84451 80.096 3.88954V5.46549C80.0359 5.43047 79.9309 5.38794 79.7783 5.33791C79.6282 5.28788 79.4531 5.26287 79.258 5.26287C78.8752 5.26287 78.5826 5.38294 78.3749 5.62058C78.1698 5.85823 78.0672 6.21094 78.0672 6.67873V7.61429H80.7839V5.87324L82.615 5.3154V7.61429H84.4611V9.10519H82.615V12.7299C82.615 13.2077 82.7025 13.5429 82.8752 13.7405C83.0478 13.9356 83.3204 14.0357 83.6932 14.0357C83.7982 14.0357 83.9258 14.0107 84.0734 13.9606C84.221 13.9106 84.3511 13.8506 84.4611 13.7805V15.2889C84.3461 15.354 84.1534 15.414 83.8858 15.469C83.6181 15.5241 83.3529 15.5516 83.0903 15.5516C82.3223 15.5516 81.7445 15.3465 81.3617 14.9387C80.9765 14.5285 80.7864 13.9131 80.7864 13.0876V9.10269H80.7839Z" fill="#77787B"/>
    <path d="M8.56018 0.950195H0V9.51038H8.56018V0.950195Z" fill="#F26522"/>
    <path d="M18.0084 0.950195H9.44818V9.51038H18.0084V0.950195Z" fill="#8DC63F"/>
    <path d="M8.56018 10.3984H0V18.9586H8.56018V10.3984Z" fill="#00AEEF"/>
    <path d="M18.0084 10.3984H9.44818V18.9586H18.0084V10.3984Z" fill="#FFC20E"/>
    <path d="M88.6216 15.4588V4.77436H92.0117C93.0449 4.77436 93.862 5.00037 94.463 5.45238C95.069 5.9044 95.372 6.49301 95.372 7.21822C95.372 7.82422 95.2006 8.35074 94.8579 8.79779C94.5152 9.24484 94.0408 9.56274 93.4348 9.75149V9.78129C94.1699 9.86574 94.7561 10.1389 95.1932 10.6009C95.6353 11.0579 95.8563 11.6539 95.8563 12.3891C95.8563 13.303 95.4962 14.0432 94.7759 14.6094C94.0557 15.1757 93.1467 15.4588 92.0489 15.4588H88.6216ZM90.3874 6.19746V9.23739H91.5348C92.1508 9.23739 92.6326 9.09334 92.9803 8.80524C93.333 8.51218 93.5093 8.0999 93.5093 7.56841C93.5093 6.65444 92.8983 6.19746 91.6764 6.19746H90.3874ZM90.3874 10.6605V14.0432H91.8999C92.5606 14.0432 93.0697 13.8917 93.4273 13.5887C93.79 13.2807 93.9713 12.8585 93.9713 12.322C93.9713 11.2143 93.2038 10.6605 91.669 10.6605H90.3874Z" fill="#77787B"/>
    <path d="M98.0234 6.22726C97.7403 6.22726 97.4969 6.13537 97.2932 5.95158C97.0945 5.7678 96.9952 5.53434 96.9952 5.25121C96.9952 4.96808 97.0945 4.73214 97.2932 4.54338C97.4969 4.35463 97.7403 4.26025 98.0234 4.26025C98.3165 4.26025 98.5648 4.35463 98.7685 4.54338C98.9721 4.73214 99.074 4.96808 99.074 5.25121C99.074 5.51944 98.9721 5.75041 98.7685 5.94413C98.5648 6.13289 98.3165 6.22726 98.0234 6.22726ZM98.8802 15.4588H97.1516V7.82919H98.8802V15.4588Z" fill="#77787B"/>
    <path d="M107.44 15.4588H105.712V11.1597C105.712 9.73411 105.207 9.02131 104.199 9.02131C103.672 9.02131 103.238 9.22 102.895 9.61738C102.552 10.0098 102.381 10.5065 102.381 11.1075V15.4588H100.645V7.82919H102.381V9.09582H102.411C102.982 8.13218 103.807 7.65037 104.884 7.65037C105.714 7.65037 106.347 7.92108 106.784 8.4625C107.222 8.99896 107.44 9.77633 107.44 10.7946V15.4588Z" fill="#77787B"/>
    <path d="M116 14.8478C116 17.6493 114.592 19.0501 111.775 19.0501C110.782 19.0501 109.915 18.8837 109.175 18.5509V16.9713C110.01 17.4482 110.802 17.6866 111.552 17.6866C113.365 17.6866 114.271 16.795 114.271 15.0118V14.1773H114.242C113.67 15.1508 112.811 15.6376 111.664 15.6376C110.735 15.6376 109.985 15.2999 109.413 14.6243C108.847 13.9438 108.564 13.0323 108.564 11.8899C108.564 10.5934 108.87 9.56274 109.481 8.79779C110.091 8.03284 110.931 7.65037 111.999 7.65037C113.007 7.65037 113.755 8.06264 114.242 8.8872H114.271V7.82919H116V14.8478ZM114.286 11.9644V10.9734C114.286 10.437 114.107 9.97998 113.75 9.60248C113.397 9.22 112.955 9.02876 112.424 9.02876C111.768 9.02876 111.254 9.27216 110.881 9.75894C110.514 10.2408 110.33 10.9163 110.33 11.7856C110.33 12.5356 110.506 13.1366 110.859 13.5887C111.217 14.0357 111.688 14.2592 112.275 14.2592C112.871 14.2592 113.355 14.0456 113.727 13.6185C114.1 13.1863 114.286 12.635 114.286 11.9644Z" fill="#77787B"/>
</svg>    