<svg width="37" height="36" viewBox="0 0 37 36" fill="none" xmlns="http://www.w3.org/2000/svg">
    <path d="M3 18C3 9.16344 10.1634 2 19 2C27.8366 2 35 9.16344 35 18C35 26.8366 27.8366 34 19 34C10.1634 34 3 26.8366 3 18ZM26.6653 14.2367C27.1116 13.7904 27.1116 13.0668 26.6653 12.6205C26.219 12.1741 25.4953 12.1741 25.049 12.6205L17.2857 20.3838L13.5224 16.6205C13.0761 16.1741 12.3525 16.1741 11.9062 16.6205C11.4599 17.0668 11.4599 17.7904 11.9062 18.2367L16.4776 22.8081C16.9239 23.2544 17.6475 23.2544 18.0938 22.8081L26.6653 14.2367Z" fill="#60BD84" />
</svg>
    