<svg width="37" height="36" viewBox="0 0 37 38" fill="none" xmlns="http://www.w3.org/2000/svg">
<path d="M18.5 37.5C28.7175 37.5 37 29.2157 37 19C37 8.7843 28.7175 0.5 18.5 0.5C8.28245 0.5 0 8.7843 0 19C0 29.2157 8.28245 37.5 18.5 37.5ZM18.5033 13.4431C17.483 13.4431 16.6558 12.6159 16.6558 11.5956C16.6558 10.5752 17.483 9.74806 18.5033 9.74806C19.5237 9.74806 20.3509 10.5752 20.3509 11.5956C20.3509 12.6159 19.5237 13.4431 18.5033 13.4431ZM18.4993 28.25C17.5506 28.2497 16.7689 27.5352 16.6624 26.6151L16.65 26.3993L16.6533 17.1477L16.6659 16.932C16.7731 16.0119 17.5553 15.298 18.504 15.2984C19.4527 15.2987 20.2344 16.0132 20.341 16.9333L20.3533 17.149L20.35 26.4007L20.3375 26.6164C20.2303 27.5364 19.4481 28.2503 18.4993 28.25Z" fill="#CC7A00"/>
</svg>
